<svg width="167" height="49" viewBox="0 0 167 49" fill="none" xmlns="http://www.w3.org/2000/svg">
<g clip-path="url(#clip0_1017_325)">
<path d="M13.1451 48.867L27.4073 13.5873L41.672 48.867H46.927L30.7147 9.05566H24.1025L7.89014 48.867H13.1451Z" fill="#00B49D"/>
<path d="M26.8579 32.7135H23.594V35.9774H26.8579V32.7135Z" fill="#0199CD"/>
<path d="M31.2207 32.7135H27.9568V35.9774H31.2207V32.7135Z" fill="#0199CD"/>
<path d="M26.8579 36.8184H23.594V40.0823H26.8579V36.8184Z" fill="#0199CD"/>
<path d="M31.2207 36.8184H27.9568V40.0823H31.2207V36.8184Z" fill="#0199CD"/>
<path d="M27.4175 44.2229C23.7421 44.2229 20.3018 43.2184 17.3522 41.4727L17.0864 42.1321C20.1203 43.9059 23.6501 44.9257 27.4201 44.9257C31.1824 44.9257 34.7071 43.911 37.7384 42.1398L37.4726 41.4803C34.523 43.2209 31.0879 44.2229 27.4175 44.2229Z" fill="#030303"/>
<path d="M7.62953 24.4348C7.62953 13.5056 16.4884 4.64674 27.4176 4.64674C38.3468 4.64674 47.2057 13.5056 47.2057 24.4348C47.2057 28.9818 45.6696 33.171 43.0906 36.5142L43.3973 37.2656C46.2191 33.7538 47.9111 29.2937 47.9111 24.4374C47.9111 13.1197 38.7353 3.94641 27.4202 3.94641C16.1025 3.94641 6.9292 13.1222 6.9292 24.4374C6.9292 29.286 8.61612 33.741 11.4302 37.2503L11.7369 36.4989C9.16053 33.1582 7.62953 28.9767 7.62953 24.4348Z" fill="black"/>
<path d="M17.0839 42.1346L17.3497 41.4752C15.1746 40.187 13.2679 38.495 11.7318 36.5013L11.425 37.2528C12.9944 39.203 14.9113 40.8618 17.0839 42.1346Z" fill="#030303"/>
<path d="M27.4175 0C13.9221 0 2.98267 10.9394 2.98267 24.4348C2.98267 30.9908 5.56417 36.941 9.76613 41.3295C11.4658 43.1034 13.4288 44.6216 15.5937 45.8203C19.0979 47.7628 23.1286 48.8696 27.4175 48.8696C31.7012 48.8696 35.7268 47.7654 39.2285 45.828L38.9115 45.0433L37.7383 42.1398C34.707 43.911 31.1824 44.9258 27.42 44.9258C23.65 44.9258 20.1202 43.9085 17.0863 42.1321C14.9138 40.8618 12.9968 39.2004 11.43 37.2477C8.6134 33.7384 6.92904 29.2834 6.92904 24.4348C6.92904 13.1171 16.1049 3.94382 27.42 3.94382C38.7352 3.94382 47.911 13.1196 47.911 24.4348C47.911 29.2911 46.2215 33.7512 43.3972 37.263L44.7109 40.4861L45.0586 41.3423C49.2682 36.9538 51.8548 30.9959 51.8548 24.4348C51.8522 10.9394 40.9128 0 27.4175 0Z" fill="#0097C5"/>
<path d="M0 34.4847L27.4176 20.3912L54.8172 34.615V39.1391L27.4176 24.013L0 38.7506V34.4847Z" fill="black"/>
<path d="M0 33.7231L27.4176 19.6322L54.8172 33.8535V38.3775L27.4176 23.2514L0 37.9915V33.7231Z" fill="#0097C5"/>
<path d="M122.675 46.4797V48.7801H121.331V42.2522H123.876C124.367 42.2522 124.796 42.3417 125.17 42.5206C125.543 42.6995 125.829 42.9551 126.028 43.2848C126.228 43.6145 126.327 43.9902 126.327 44.412C126.327 45.051 126.108 45.557 125.671 45.9251C125.233 46.2931 124.628 46.4797 123.853 46.4797H122.675ZM122.675 45.3909H123.876C124.232 45.3909 124.502 45.3065 124.689 45.1404C124.876 44.9743 124.97 44.734 124.97 44.4222C124.97 44.1027 124.876 43.8445 124.689 43.6477C124.5 43.4509 124.242 43.3487 123.91 43.3436H122.678V45.3909H122.675Z" fill="#00B49D"/>
<path d="M129.668 46.3903H128.597V48.7801H127.253V42.2522H129.678C130.45 42.2522 131.043 42.4234 131.462 42.7685C131.882 43.111 132.091 43.5992 132.091 44.2254C132.091 44.6701 131.994 45.0407 131.802 45.3398C131.611 45.6363 131.317 45.874 130.926 46.0503L132.336 48.7162V48.7801H130.892L129.668 46.3903ZM128.597 45.3014H129.681C130.018 45.3014 130.279 45.2145 130.466 45.0433C130.65 44.872 130.744 44.6343 130.744 44.3327C130.744 44.026 130.657 43.7832 130.481 43.6068C130.307 43.4305 130.039 43.3436 129.676 43.3436H128.595V45.3014H128.597Z" fill="#00B49D"/>
<path d="M138.471 45.6645C138.471 46.306 138.356 46.8709 138.131 47.354C137.903 47.837 137.579 48.2102 137.154 48.4735C136.733 48.7367 136.247 48.8671 135.7 48.8671C135.158 48.8671 134.675 48.7367 134.251 48.476C133.827 48.2153 133.497 47.8447 133.264 47.3616C133.032 46.8785 132.914 46.3239 132.909 45.6977V45.3757C132.909 44.7341 133.024 44.1667 133.257 43.6785C133.489 43.1903 133.816 42.8146 134.238 42.5539C134.66 42.2932 135.145 42.1628 135.687 42.1628C136.232 42.1628 136.715 42.2932 137.136 42.5539C137.558 42.8146 137.885 43.1903 138.118 43.6785C138.351 44.1667 138.466 44.7316 138.466 45.3705V45.6645H138.471ZM137.108 45.368C137.108 44.683 136.986 44.1641 136.74 43.8089C136.495 43.4536 136.145 43.2747 135.692 43.2747C135.24 43.2747 134.892 43.451 134.647 43.8012C134.402 44.1539 134.276 44.6677 134.274 45.345V45.6645C134.274 46.3316 134.397 46.8479 134.642 47.2159C134.887 47.584 135.24 47.768 135.7 47.768C136.152 47.768 136.497 47.5917 136.74 47.2364C136.983 46.8811 137.106 46.3674 137.108 45.6875V45.368Z" fill="#00B49D"/>
<path d="M140.794 46.4797V48.7801H139.449V42.2522H141.995C142.486 42.2522 142.915 42.3417 143.288 42.5206C143.662 42.6995 143.948 42.9551 144.147 43.2848C144.347 43.6145 144.446 43.9902 144.446 44.412C144.446 45.051 144.227 45.557 143.789 45.9251C143.352 46.2931 142.747 46.4797 141.972 46.4797H140.794ZM140.794 45.3909H141.995C142.35 45.3909 142.621 45.3065 142.808 45.1404C142.995 44.9743 143.089 44.734 143.089 44.4222C143.089 44.1027 142.995 43.8445 142.808 43.6477C142.619 43.4509 142.361 43.3487 142.028 43.3436H140.796V45.3909H140.794Z" fill="#00B49D"/>
<path d="M149.298 45.9506H146.716V47.6989H149.745V48.7801H145.372V42.2522H149.737V43.3436H146.716V44.8976H149.298V45.9506Z" fill="#00B49D"/>
<path d="M152.95 46.3903H151.879V48.7801H150.535V42.2522H152.96C153.732 42.2522 154.325 42.4234 154.744 42.7685C155.163 43.111 155.373 43.5992 155.373 44.2254C155.373 44.6701 155.276 45.0407 155.084 45.3398C154.893 45.6363 154.599 45.874 154.208 46.0503L155.618 48.7162V48.7801H154.174L152.95 46.3903ZM151.879 45.3014H152.963C153.3 45.3014 153.563 45.2145 153.747 45.0433C153.932 44.872 154.026 44.6343 154.026 44.3327C154.026 44.026 153.939 43.7832 153.763 43.6068C153.589 43.4305 153.321 43.3436 152.958 43.3436H151.877V45.3014H151.879Z" fill="#00B49D"/>
<path d="M161.083 43.3436H159.082V48.7801H157.737V43.3436H155.767V42.2522H161.083V43.3436Z" fill="#00B49D"/>
<path d="M164.171 45.1941L165.528 42.2522H167L164.855 46.4133V48.7801H163.488V46.4133L161.346 42.2522H162.821L164.171 45.1941Z" fill="#00B49D"/>
<path d="M108.096 9.91956H96.7065V39.1493H101.156V26.7581H108.096C113.762 26.7581 115.782 22.4232 115.782 18.3669C115.782 13.3138 112.694 9.91956 108.096 9.91956ZM111.39 18.1752C111.39 21.0328 110.054 22.3082 107.053 22.3082H101.156V14.3694H107.186C110.056 14.3694 111.39 15.5784 111.39 18.1752Z" fill="#0097C5"/>
<path d="M140.127 9.91956H121.331V14.3694H140.127V9.91956Z" fill="#0097C5"/>
<path d="M125.78 26.7581H138.785V22.3082H121.331V39.1493H140.127V34.6994H125.78V26.7581Z" fill="#0097C5"/>
<path d="M150.609 9.91956H145.505L153.604 24.3606L145.313 39.1493H150.415L156.155 28.9102L161.896 39.1493H167L150.609 9.91956Z" fill="#0097C5"/>
<path d="M81.9102 9.91956H77.4501L68.011 39.1493H72.7983L79.6814 17.843L86.562 39.1493H91.3493L82.0252 10.2723L81.9102 9.91956Z" fill="#0097C5"/>
<path d="M161.704 9.91956L156.817 18.6353L159.368 23.1849L166.806 9.91956H161.704Z" fill="#0097C5"/>
</g>
<defs>
<clipPath id="clip0_1017_325">
<rect width="167" height="48.8696" fill="white"/>
</clipPath>
</defs>
</svg>
