<svg width="34" height="34" viewBox="0 0 34 34" fill="none" xmlns="http://www.w3.org/2000/svg">
<path d="M27.2211 33.1391H5.91794C2.64805 33.1391 0 30.491 0 27.2211V5.91794C0 2.64805 2.64805 0 5.91794 0H27.2211C30.491 0 33.1391 2.64805 33.1391 5.91794V27.2211C33.1391 30.491 30.491 33.1391 27.2211 33.1391Z" fill="#3E5C9A"/>
<path d="M14.0438 26.5852H18.0753V16.4821H20.891L21.1914 13.1004H18.0753C18.0753 13.1004 18.0753 11.8358 18.0753 11.172C18.0753 10.3755 18.236 10.0611 19.0045 10.0611C19.6264 10.0611 21.1845 10.0611 21.1845 10.0611V6.55368C21.1845 6.55368 18.8858 6.55368 18.3897 6.55368C15.3853 6.55368 14.0368 7.87421 14.0368 10.4035C14.0368 12.6044 14.0368 13.1004 14.0368 13.1004H11.9407V16.524H14.0368V26.5852H14.0438Z" fill="white"/>
</svg>
