<svg width="33" height="33" viewBox="0 0 33 33" fill="none" xmlns="http://www.w3.org/2000/svg">
<path d="M25.6779 32.9826L7.3542 33C3.323 33.0037 0.0219915 29.7091 0.0174106 25.6779L3.05438e-06 7.3542C-0.00366168 3.323 3.29093 0.0219915 7.32214 0.0174106L25.6458 3.05438e-06C29.677 -0.00366168 32.978 3.29093 32.9826 7.32214L33 25.6458C33.0046 29.6779 29.7091 32.9789 25.6779 32.9826Z" fill="url(#paint0_radial_1087_400)"/>
<path d="M25.6779 32.9826L7.3542 33C3.323 33.0037 0.0219915 29.7091 0.0174106 25.6779L3.05438e-06 7.3542C-0.00366168 3.323 3.29093 0.0219915 7.32214 0.0174106L25.6458 3.05438e-06C29.677 -0.00366168 32.978 3.29093 32.9826 7.32214L33 25.6458C33.0046 29.6779 29.7091 32.9789 25.6779 32.9826Z" fill="url(#paint1_radial_1087_400)"/>
<path d="M16.5004 22.9138C12.9649 22.9138 10.0872 20.0369 10.0872 16.5005C10.0872 12.964 12.9649 10.0872 16.5004 10.0872C20.036 10.0872 22.9137 12.964 22.9137 16.5005C22.9137 20.0369 20.036 22.9138 16.5004 22.9138ZM16.5004 11.9196C13.9745 11.9196 11.9195 13.9746 11.9195 16.5005C11.9195 19.0264 13.9745 21.0814 16.5004 21.0814C19.0264 21.0814 21.0814 19.0264 21.0814 16.5005C21.0814 13.9746 19.0264 11.9196 16.5004 11.9196Z" fill="white"/>
<path d="M23.3718 11.0034C24.1308 11.0034 24.7461 10.3881 24.7461 9.6291C24.7461 8.87011 24.1308 8.25482 23.3718 8.25482C22.6128 8.25482 21.9976 8.87011 21.9976 9.6291C21.9976 10.3881 22.6128 11.0034 23.3718 11.0034Z" fill="white"/>
<path d="M21.9976 28.4108H11.0034C7.46782 28.4108 4.59009 25.534 4.59009 21.9976V11.0034C4.59009 7.4669 7.46782 4.59009 11.0034 4.59009H21.9976C25.5331 4.59009 28.4108 7.4669 28.4108 11.0034V21.9976C28.4108 25.534 25.5331 28.4108 21.9976 28.4108ZM11.0034 6.42245C8.47745 6.42245 6.42245 8.47745 6.42245 11.0034V21.9976C6.42245 24.5235 8.47745 26.5785 11.0034 26.5785H21.9976C24.5235 26.5785 26.5785 24.5235 26.5785 21.9976V11.0034C26.5785 8.47745 24.5235 6.42245 21.9976 6.42245H11.0034Z" fill="white"/>
<defs>
<radialGradient id="paint0_radial_1087_400" cx="0" cy="0" r="1" gradientUnits="userSpaceOnUse" gradientTransform="translate(12.2677 33.0238) scale(41.1357 41.1357)">
<stop stop-color="#FFDD55"/>
<stop offset="0.328" stop-color="#FF543F"/>
<stop offset="0.348" stop-color="#FC5245"/>
<stop offset="0.504" stop-color="#E64771"/>
<stop offset="0.643" stop-color="#D53E91"/>
<stop offset="0.761" stop-color="#CC39A4"/>
<stop offset="0.841" stop-color="#C837AB"/>
</radialGradient>
<radialGradient id="paint1_radial_1087_400" cx="0" cy="0" r="1" gradientUnits="userSpaceOnUse" gradientTransform="translate(5.3102 -0.412002) scale(27.3142 18.1994)">
<stop stop-color="#4168C9"/>
<stop offset="0.999" stop-color="#4168C9" stop-opacity="0"/>
</radialGradient>
</defs>
</svg>
