<svg width="34" height="34" viewBox="0 0 34 34" fill="none" xmlns="http://www.w3.org/2000/svg">
<path d="M27.2211 33.1321H5.91794C2.64805 33.1321 0 30.484 0 27.2141V5.91794C0 2.64805 2.64805 0 5.91794 0H27.2211C30.491 0 33.1391 2.64805 33.1391 5.91794V27.2211C33.1391 30.484 30.491 33.1321 27.2211 33.1321Z" fill="#C3271A"/>
<path d="M29.2823 10.1451C28.9749 8.99923 28.0805 8.09093 26.9347 7.78351C24.8665 7.22455 16.573 7.22455 16.573 7.22455C16.573 7.22455 8.27954 7.22455 6.2114 7.78351C5.07253 8.09093 4.17122 8.99224 3.86379 10.1451C3.31182 12.2272 3.31183 16.5731 3.31183 16.5731C3.31183 16.5731 3.31182 20.919 3.86379 23.0011C4.17122 24.1469 5.06555 25.0552 6.2114 25.3626C8.27954 25.9216 16.573 25.9216 16.573 25.9216C16.573 25.9216 24.8665 25.9216 26.9347 25.3626C28.0735 25.0552 28.9749 24.1539 29.2823 23.0011C29.8342 20.919 29.8343 16.5731 29.8343 16.5731C29.8343 16.5731 29.8342 12.2202 29.2823 10.1451Z" fill="white"/>
<path d="M13.8621 20.5067V12.6254L20.7932 16.566L13.8621 20.5067Z" fill="#C3271A"/>
</svg>
